<svg xmlns="http://www.w3.org/2000/svg" viewBox="0 0 256 256">
  <defs>
    <linearGradient id="bgGradient" x1="0%" y1="0%" x2="0%" y2="100%">
      <stop offset="0%" style="stop-color:#1a1a1a;stop-opacity:1" />
      <stop offset="100%" style="stop-color:#0d0d0d;stop-opacity:1" />
    </linearGradient>
  </defs>
  
  <!-- 背景 -->
  <rect width="256" height="256" fill="url(#bgGradient)"/>
  
  <!-- 左上叶子 -->
  <path d="M 90 80 Q 70 85 65 105 Q 60 125 75 140 Q 85 145 95 130 Q 100 110 95 90 Z" 
        fill="#5cb85c" stroke="#2d5a2d" stroke-width="1.5" stroke-linejoin="round"/>
  <!-- 左上叶脉 -->
  <path d="M 90 85 Q 80 105 82 125" 
        stroke="#2d5a2d" stroke-width="1" fill="none" opacity="0.5"/>
  
  <!-- 左中叶子 -->
  <path d="M 85 125 Q 60 135 55 160 Q 50 185 70 200 Q 85 205 98 190 Q 105 165 100 140 Z" 
        fill="#66bb6a" stroke="#2d5a2d" stroke-width="1.5" stroke-linejoin="round"/>
  <!-- 左中叶脉 -->
  <path d="M 85 135 Q 70 160 72 185" 
        stroke="#2d5a2d" stroke-width="1" fill="none" opacity="0.5"/>
  
  <!-- 右上叶子 -->
  <path d="M 160 75 Q 185 80 195 100 Q 200 125 180 140 Q 165 140 155 120 Q 150 95 160 80 Z" 
        fill="#81c784" stroke="#2d5a2d" stroke-width="1.5" stroke-linejoin="round"/>
  <!-- 右上叶脉 -->
  <path d="M 165 85 Q 180 100 178 120" 
        stroke="#2d5a2d" stroke-width="1" fill="none" opacity="0.5"/>
  
  <!-- 右中叶子 -->
  <path d="M 165 135 Q 195 145 205 170 Q 210 195 190 210 Q 170 210 158 190 Q 155 160 165 140 Z" 
        fill="#7cb342" stroke="#2d5a2d" stroke-width="1.5" stroke-linejoin="round"/>
  <!-- 右中叶脉 -->
  <path d="M 170 145 Q 190 165 188 190" 
        stroke="#2d5a2d" stroke-width="1" fill="none" opacity="0.5"/>
  
  <!-- 中心叶子（主体）-->
  <path d="M 128 100 Q 108 110 105 140 Q 105 175 128 195 Q 150 175 150 140 Q 148 110 128 100 Z" 
        fill="#9ccc65" stroke="#2d5a2d" stroke-width="2" stroke-linejoin="round"/>
  <!-- 中心叶脉 -->
  <path d="M 128 105 Q 125 140 126 170 Q 127 190 128 195" 
        stroke="#2d5a2d" stroke-width="1.5" fill="none" opacity="0.6"/>
  <path d="M 115 120 Q 128 140 140 120" 
        stroke="#2d5a2d" stroke-width="0.8" fill="none" opacity="0.4"/>
  <path d="M 110 150 Q 128 160 145 150" 
        stroke="#2d5a2d" stroke-width="0.8" fill="none" opacity="0.4"/>
</svg>
